# xmcd
#
# Track frame offsets:
#	150
#	15697
#	31705
#	45228
#	56666
#	66671
#	80853
#	93040
#	105590
#	122352
#
# Disc length: 1801 seconds
# Revision: 2
# Processed by: cddbd v1.5.2PL0 Copyright (c) Steve Scherf et al.
# Submitted via: dBpowerAMP V12.0
#
DISCID=7507070a
DTITLE=Lorrie Morgan - Making Love for the First Time
DYEAR=2006
DGENRE=Country
TTITLE0=Two People in Love
TTITLE1=In for Rain
TTITLE2=Making Love for the First Time
TTITLE3=Tell Me I'm Only Dreaming
TTITLE4=I Love How You Love
TTITLE5=Let It Be Yesterday
TTITLE6=I Don't Care
TTITLE7=The First Few Days of Love
TTITLE8=From This Moment On
TTITLE9=I'm Completely Satisfied with You
EXTD=
EXTT0=
EXTT1=
EXTT2=
EXTT3=
EXTT4=
EXTT5=
EXTT6=
EXTT7=
EXTT8=
EXTT9=
PLAYORDER=
